<?xml version="1.0" encoding="utf-8"?>
<!-- Generator: Adobe Illustrator 21.0.0, SVG Export Plug-In . SVG Version: 6.00 Build 0)  -->
<svg version="1.1" xmlns="http://www.w3.org/2000/svg" xmlns:xlink="http://www.w3.org/1999/xlink" x="0px" y="0px"
	 viewBox="0 0 1132 315" style="enable-background:new 0 0 1132 315;" xml:space="preserve">
<style type="text/css">
	.st0{display:none;fill:none;stroke:#6D909C;stroke-width:20;stroke-linecap:round;stroke-miterlimit:10;}
	.st1{fill:none;stroke:#181819;stroke-width:20;stroke-linecap:round;stroke-miterlimit:10;}
	.st2{fill:#2A6F9E;}
	.st3{fill:none;stroke:#2A6F9E;stroke-width:10;stroke-linecap:round;stroke-miterlimit:10;}
</style>
<g id="Layer_1">
</g>
<g id="Layer_2">
	<path class="st0" d="M753,123.5c0,60.1-48.8,108.9-108.9,108.9s-108.9-48.8-108.9-108.9S583.9,14.6,644.1,14.6S753,63.4,753,123.5z
		 M862,15c-60.1,0-109,48.4-109,108.5s48.8,108.9,108.9,108.9s108.9-48.8,108.9-108.9 M1052.7,14.6h-81.9L971,234 M971.6,124.3h80.7
		c30.3,0,54.8-24.6,54.8-54.8s-24.6-54.8-54.8-54.8 M1053.3,123.9l54.8,108.1 M863,15h42"/>
	<g>
		<path class="st1" d="M466.5,14.2V232 M512.1,14.2v217 M352.2,88.8v143.7 M424.1,88.4c-39.7,0-71.8,32.2-71.8,71.8 M118.6,88.8
			c-39.3,0-71.1,31.8-71.1,71.1S79.4,231,118.6,231c20.6,0,39.2-8.8,52.2-22.8 M189.8,90.6v69.9c0,39.3,26.8,71.1,59.9,71.1
			s59.9-31.8,59.9-71.1V88.8 M226.4,298.2c7.2,3.6,15.1,5.6,23.3,5.6c33.1,0,59.9-31.8,59.9-71.1v-71.7 M418.3,135.1v97.3
			 M417.9,14.2c-2.6,0-4.6,2.1-4.6,4.6s2.1,4.6,4.6,4.6c2.6,0,4.6-2.1,4.6-4.6S420.4,14.2,417.9,14.2z"/>
		<g>
			<path class="st2" d="M602.9,223.7c-9.7-12-16.5-25.4-20.4-40.1c-3-11.5-4.1-23.3-3.2-35.4c0.9-12.1,3.9-23.6,9.2-34.8
				c6.2-13.5,14.6-25,25.2-34.2c10.7-9.3,22.7-16.1,36.1-20.4l0.6-0.1c1.5-0.4,2.9-0.2,4.2,0.7c1.3,0.8,2.3,2.1,2.9,3.7l6.4,24.2
				c0.9,3.5-0.5,6-4.3,7.4c-8.2,3-15.5,7.4-22.1,13.4c-6.6,6-11.6,13-15,21.1c-6.8,14.9-8.2,30.1-4.1,45.5
				c2.5,9.3,6.8,17.7,12.9,25.3c6.2,7.6,13.7,13.5,22.6,17.7c14.9,6.8,30,8.2,45.2,4.2c9.3-2.5,17.7-6.8,25.2-12.9
				c7.5-6.2,13.3-13.7,17.3-22.7c3.4-7.3,5.5-14.8,6.1-22.6c0.6-7.8,0-15.4-2-22.9c-2.8-10.6-7.7-19.8-14.8-27.7
				c-1.4-1.6-2.4-3.3-2.9-5.2c-0.6-2.4-0.1-4.8,1.7-7.3c1.2-1.3,3.6-4,7.1-8.1c3.5-4.1,5.7-6.7,6.6-7.7c1.2-1.3,2.5-2.2,3.8-2.5
				c3-0.8,5.6,0,7.8,2.4c13,13.3,21.9,28.9,26.7,46.9c3.1,11.7,4.1,23.6,3.2,35.7c-1,12.1-4.1,23.7-9.3,34.8
				c-6,14.1-15,26.1-27,35.9c-12,9.8-25.5,16.7-40.3,20.6c-11.7,3.1-23.6,4.1-35.6,3c-12-1.1-23.3-4.3-33.9-9.7
				C624.6,245.2,612.7,235.8,602.9,223.7z"/>
			<path class="st2" d="M845.3,247.6c-15.6-9.2-27.9-21.8-37-37.6c-9.1-15.9-13.7-33.2-13.7-52c0-18.6,4.6-35.9,13.7-51.7
				c9.1-15.9,21.5-28.4,37-37.8c15.6-9.3,32.6-14,51-14c14.8,0,28.7,3,41.6,8.9c13,6,24.2,14.1,33.6,24.5c0.8,0.8,1.2,1.7,1.2,2.9
				c0,1.3-0.5,2.4-1.4,3.2l-20.8,17.9c-1,1-2,1.4-3.2,1.4s-2.1-0.5-2.9-1.4c-6.2-6.7-13.4-12-21.8-15.7c-8.4-3.7-17.1-5.6-26.4-5.6
				c-11.9,0-22.9,3-33,9.1c-10.1,6.1-18.1,14.3-24.1,24.6c-6,10.4-8.9,21.6-8.9,33.7s3,23.3,8.9,33.7c6,10.4,14,18.6,24.1,24.6
				c10.1,6.1,21.1,9.1,33,9.1c8.8,0,17.2-1.7,25.1-5c7.9-3.4,14.9-8.1,21-14.3c1.7-1.5,3.6-2.3,5.5-2.3c1.7,0,3.1,0.5,4,1.4l5.5,4.6
				l11.5,10.4c1.9,1.3,2.9,3.2,2.9,5.5c0,1.3-0.5,2.5-1.4,3.5c-9.4,10.2-20.5,18.1-33.3,23.8c-12.8,5.7-26.4,8.5-40.8,8.5
				C877.9,261.4,860.9,256.8,845.3,247.6z"/>
			<path class="st2" d="M995.6,257.4c-1.1-1-1.6-2.2-1.6-3.7V153.1c0-1.5,0.5-2.8,1.6-3.9c1.1-1.1,2.4-1.6,3.9-1.6h59.7
				c7.7,0,14.2-2.6,19.5-7.8c5.3-5.2,7.9-11.4,7.9-18.7c0-7.5-2.6-13.8-7.9-19c-5.3-5.2-11.8-7.8-19.5-7.8H1035
				c-2.1,0-3.9,0.7-5.3,2.2c-1.4,1.4-2.2,3.1-2.2,5v7.2c0,1.9-0.7,3.6-2,5c-1.3,1.4-3.1,2.2-5.2,2.2h-19c-1.9,0-3.6-0.7-5-2.2
				c-1.4-1.4-2.2-3.1-2.2-5V62.3c0-1.5,0.5-2.8,1.6-3.9c1.1-1.1,2.4-1.6,3.9-1.6h59.7c11.9,0,22.9,2.9,32.9,8.6
				c10,5.8,17.9,13.5,23.8,23.3c5.9,9.8,8.8,20.6,8.8,32.3c0,10-2.3,19.4-6.8,28.2c-4.5,8.8-10.7,16.2-18.6,22.2
				c-1.2,0.8-1.7,1.7-1.7,2.9s0.1,2.1,0.3,2.9l33.4,74.6c0.8,1.3,1.2,2.6,1.2,3.7c0,2.1-1.3,3.2-4,3.2h-23.6c-2.1,0-3.7-0.2-4.8-0.6
				c-1.1-0.4-2-1.3-2.7-2.9l-30-67.4c-0.6-1.2-1.3-1.9-2.3-2.3c-1-0.4-2.9-0.6-5.8-0.6h-24.5c-2.3,0-4.1,0.3-5.3,1
				c-1.3,0.7-1.9,2.1-1.9,4.2v63.4c0,1.5-0.5,2.8-1.6,3.7c-1.1,1-2.4,1.4-3.9,1.4h-22.5C998,258.8,996.7,258.4,995.6,257.4z"/>
		</g>
		<polyline class="st3" points="350.3,262 555.6,262 555.6,54 538.3,54 		"/>
		<polyline class="st3" points="426.3,54 9.6,54 9.6,262 267.6,262 		"/>
	</g>
</g>
<g id="Layer_3">
</g>
</svg>
